<svg xmlns="http://www.w3.org/2000/svg" width="25" height="25" viewBox="0 0 25 25"><g fill="none" fill-rule="evenodd"><path stroke="#666" d="M12.496 1.905a9.128 9.128 0 00-9.128 9.128c0 .475.036.028.106.484h18.044c.07-.456.107-.009.107-.484a9.128 9.128 0 00-9.129-9.128z"/><path stroke="#666" d="M21.987 13.341H3.007a.911.911 0 01-.912-.912h0c0-.504.408-.912.912-.912h18.981c.504 0 .912.408.912.912h0a.912.912 0 01-.913.912z"/><g transform="translate(2.693 13.268)"><path stroke="#666" d="M6.891.212h2.16c.296 0 .592.24.592.536 0 .27-.026.653-.354.698l-.715.091c-.382.048-.946.071-.946.592v.11c0 .397.421.676.727.797.636.251 1.303.013 1.956-.217.433-.153.738-.62 1.032-.95l.871-.977c.131-.146.264-.308.402-.456.133-.145.355-.289.554-.342.246-.067.613-.065.809.118.175.165.447.528.334.74l-.59 1.109-.828 1.551c-.229.43-.418.89-.68 1.305-.274.429-.355.557-.801.79-.324.169-.96.48-1.324.535-.38.057-.029.031-.415.031-.264 0-1.301-.034-1.563-.01-.203.02-.869.055-1.045.146-.193.1-.234-.026-.4-.167L3.694 3.72c-.193-.164-.363-.216-.244-.44C3.913 2.414 5.232.212 6.891.212z"/><path stroke="#666" d="M7.92 8.3L6.77 9.557a.745.745 0 01-1.051.092L.573 5.264a.746.746 0 01-.091-1.052L1.63 2.955a.746.746 0 011.052-.092l5.146 4.385A.746.746 0 017.919 8.3z"/><circle cx="6.153" cy="8.079" r="1" fill="#666" fill-rule="nonzero"/></g><path stroke="#666" d="M13.444 1.953l.002-.05a.95.95 0 10-1.897.05c.31-.032.627-.05.947-.05.32 0 .637.018.948.05z"/><path stroke="#666" stroke-linecap="round" d="M14.583 4.167c1.779.49 3.332 1.843 4.1 3.51"/></g></svg>