<svg xmlns="http://www.w3.org/2000/svg" width="16" height="16"><defs><linearGradient id="a" x1="0%" x2="100%" y1="50%" y2="50%"><stop offset="0%" stop-color="#95DCF6"/><stop offset="100%" stop-color="#507EFF"/></linearGradient><linearGradient id="c" x1="4.674%" x2="95.326%" y1="28.864%" y2="71.136%"><stop offset="0%" stop-color="#FFF" stop-opacity=".06"/><stop offset="100%" stop-color="#FFF" stop-opacity="0"/></linearGradient><linearGradient id="d" x1="85.935%" x2="13.435%" y1="25.63%" y2="74.797%"><stop offset="0%" stop-color="#FFF" stop-opacity="0"/><stop offset="100%" stop-color="#FFF" stop-opacity=".06"/></linearGradient><linearGradient id="e" x1="50%" x2="50%" y1="0%" y2="100%"><stop offset="0%" stop-color="#00ACCD" stop-opacity=".2"/><stop offset="12.744%" stop-color="#1AB4D2" stop-opacity=".175"/><stop offset="40.011%" stop-color="#5CCADF" stop-opacity=".12"/><stop offset="79.292%" stop-color="#C5ECF4" stop-opacity=".041"/><stop offset="100%" stop-color="#FFF" stop-opacity="0"/></linearGradient><linearGradient id="f" x1="10.238%" x2="96.199%" y1="40.662%" y2="67.385%"><stop offset="0%" stop-color="#FFF" stop-opacity=".1"/><stop offset="100%" stop-color="#FFF" stop-opacity="0"/></linearGradient><radialGradient id="b" cx="51.389%" cy="98.438%" r="63.738%" fx="51.389%" fy="98.438%" gradientTransform="matrix(.66667 0 0 1 .171 0)"><stop offset="0%" stop-color="#009ADA"/><stop offset="100%" stop-color="#1E88E5" stop-opacity="0"/></radialGradient></defs><g transform="translate(0 2.667)" fill-rule="nonzero" fill="none"><path fill="url(#a)" d="M13.665 4.451l.002-.118A4.338 4.338 0 009.333 0a4.343 4.343 0 00-3.786 2.231A2.501 2.501 0 004.5 2c-1.29 0-2.356.983-2.483 2.284A3.333 3.333 0 000 7.334a3.337 3.337 0 003.333 3.333h9.5A3.17 3.17 0 0016 7.5a3.153 3.153 0 00-2.335-3.049z"/><path fill="url(#b)" d="M13.665 4.451l.002-.118A4.338 4.338 0 009.333 0a4.343 4.343 0 00-3.786 2.231A2.501 2.501 0 004.5 2c-1.29 0-2.356.983-2.483 2.284A3.333 3.333 0 000 7.334a3.337 3.337 0 003.333 3.333h9.5A3.17 3.17 0 0016 7.5a3.153 3.153 0 00-2.335-3.049z"/><circle cx="12.833" cy="7.5" r="3.167" fill="url(#c)"/><circle cx="3.333" cy="7.333" r="3.333" fill="url(#d)"/><circle cx="4.5" cy="4.5" r="2.5" fill="#56C7DA" opacity=".2"/><circle cx="9.333" cy="4.333" r="4.333" fill="url(#e)"/><path fill="url(#f)" d="M13.665 4.451l.002-.118A4.338 4.338 0 009.333 0a4.343 4.343 0 00-3.786 2.231A2.501 2.501 0 004.5 2c-1.29 0-2.356.983-2.483 2.284A3.333 3.333 0 000 7.334a3.337 3.337 0 003.333 3.333h9.5A3.17 3.17 0 0016 7.5a3.153 3.153 0 00-2.335-3.049z"/></g></svg>