<svg xmlns="http://www.w3.org/2000/svg" xmlns:xlink="http://www.w3.org/1999/xlink" width="22" height="20" viewBox="0 0 22 20">
    <defs>
        <path id="1nj563ek7a" d="M0 0H18V18H0z"/>
    </defs>
    <g fill="none" fill-rule="evenodd">
        <g>
            <g>
                <g>
                    <g transform="translate(-303 -383) translate(279 373) translate(24 10) translate(2 1)">
                        <mask id="x5uurrudib" fill="#fff">
                            <use xlink:href="#1nj563ek7a"/>
                        </mask>
                        <g mask="url(#x5uurrudib)">
                            <g>
                                <path fill="#FFD600" d="M.002 10.255c.043-.689 1.212-1.132 2.179-1.381 1.327-.342 3.08-.53 4.937-.53h.1c3.543 0 7.207.717 7.207 1.917l-.042.141-1.289-.37v-.085c0-.536-2.413-1.133-5.876-1.133-3.464 0-5.878.597-5.878 1.133v.086l-1.28.355-.058-.133z" transform="translate(1.688 .225)"/>
                                <path fill="#323E48" d="M7.213 0.064L0 17.586 1.104 17.586 7.213 3.777 13.322 17.586 14.426 17.586z" transform="translate(1.688 .225)"/>
                                <path fill="#FFD600" d="M7.218 12.18c-3.415 0-6.304-.594-7.028-1.444-.13-.153-.198-.315-.188-.48l.038-.079 1.3-.369v.142c0 .536 2.414 1.133 5.878 1.133 3.463 0 5.876-.597 5.876-1.133v-.142l1.307.348.025.107c0 .691-1.175 1.135-2.16 1.385-1.349.343-3.142.531-5.048.531z" transform="translate(1.688 .225)"/>
                            </g>
                        </g>
                    </g>
                    <g fill-rule="nonzero" transform="translate(-303 -383) translate(279 373) translate(24 10) translate(14 11)">
                        <circle cx="4" cy="4" r="4" fill="#FFF"/>
                        <path fill="#138184" d="M5.358 2.615L3.472 4.538l-.83-.846c-.151-.077-.378-.077-.529 0-.15.154-.15.462 0 .616L3.17 5.385c.15.153.377.153.528 0l2.189-2.231c.15-.154.15-.385 0-.539-.151-.153-.378-.153-.529 0"/>
                    </g>
                </g>
            </g>
        </g>
    </g>
</svg>
