<svg xmlns="http://www.w3.org/2000/svg" width="60" height="60" viewBox="0 0 60 60"><rect width="60" height="60" rx="20" fill="#26bec9"/><path d="M33.09,60,49.584,42.107l-9.1-10.344L34.45,25.622l2.675-3.583-3.491.77-1.853,1.516L19.1,24.151l2.59-3.363-3.249-1.152L0,38.042V40A20.059,20.059,0,0,0,20,60Z" fill="#20a2ab" fill-rule="evenodd"/><path d="M29.223,40.456a1.135,1.135,0,0,1-.235-.025c-.074-.017-10.518-14.158-10.518-14.158a1.407,1.407,0,0,1-.285-1.481,1.424,1.424,0,0,1,1.342-.928h12.05l.615-2.76a1.087,1.087,0,0,1,1.052-.844,1.119,1.119,0,0,1,.237.027,1.08,1.08,0,0,1,.817,1.287L33.6,24.689l13.585,12.74a1.651,1.651,0,0,1,.437,1.841,1.672,1.672,0,0,1-1.575,1.086ZM45.363,38.4,33.108,26.908,30.545,38.4Zm-16.7-1.456,2.48-11.121H20.562Z" fill="#fff"/><circle cx="6.834" cy="6.834" r="6.834" transform="translate(7.852 29.761)" fill="#fff"/><circle cx="5" cy="5" r="5" transform="translate(9.686 31.596)" fill="#20a2ab"/><circle cx="2.5" cy="2.5" r="2.5" transform="translate(12.186 34.096)" fill="#fff"/><circle cx="6.834" cy="6.834" r="6.834" transform="translate(38.479 29.761)" fill="#fff"/><circle cx="5" cy="5" r="5" transform="translate(40.314 31.596)" fill="#20a2ab"/><circle cx="2.5" cy="2.5" r="2.5" transform="translate(42.814 34.096)" fill="#fff"/><path d="M28.362,19.294h9.393s2.559,3.731-4.121,3.509c0,0-1.973.06-2.628,0-1.012-.093-2.179-1.24-2.952-3.509Z" fill="#fee269"/><path d="M14.687,37.572a.979.979,0,0,1-.833-1.492c.052-.085,5.177-8.5,3.99-16.462l-3.509-1.357A.979.979,0,0,1,13.774,17a.988.988,0,0,1,.914-.626.957.957,0,0,1,.352.066L19.084,18l2.95,1.093a.978.978,0,0,1-.339,1.9.993.993,0,0,1-.341-.061l-1.461-.542c.749,8.327-4.162,16.38-4.373,16.722A.972.972,0,0,1,14.687,37.572Z" fill="#fff"/><path d="M40.735,17.963H45.35a2.14,2.14,0,1,0-1.531-3.636.611.611,0,0,0,.875.854.907.907,0,0,1,.656-.277.918.918,0,0,1,0,1.836H40.735a.611.611,0,0,0,0,1.223Z" fill="#fff" stroke="#fff" stroke-miterlimit="10" stroke-width="0.25"/><path d="M40.735,22.444h2.048a.611.611,0,0,0,0-1.222H40.735a.611.611,0,0,0,0,1.222Z" fill="#fff" stroke="#fff" stroke-miterlimit="10" stroke-width="0.25"/><path d="M49.9,19.084a1.254,1.254,0,1,1,.891,2.138H45.839a.611.611,0,0,0,0,1.222H50.79a2.477,2.477,0,1,0-1.76-4.22.611.611,0,1,0,.869.86Z" fill="#fff" stroke="#fff" stroke-miterlimit="10" stroke-width="0.25"/></svg>